{"title":"Taxidi sta Kythira / Voyage to Cythera (Theo Angelopoulos, 1984)","uid":9037276,"size":2837634828,"categoryP":"video","categoryS":"movies","magnet":"?xt=urn:btih:53d4fe6dfb48c2cb5f6748fa88adf94a03770e33&amp;dn=Taxidi+sta+Kythira+%2F+Voyage+to+Cythera+%28Theo+Angelopoulos%2C+1984%29&amp;tr=udp%3A%2F%2Ftracker.openbittorrent.com%3A80&amp;tr=udp%3A%2F%2Fopen.demonii.com%3A1337&amp;tr=udp%3A%2F%2Ftracker.coppersurfer.tk%3A6969&amp;tr=udp%3A%2F%2Fexodus.desync.com%3A6969","seeders":9,"leechers":1,"uploader":"moonflux","files":1,"time":1381537163,"description":"When an old Communist fighter from the days of the Civil War (the 1967 rightist military take over) comes back to Greece from years of exile in Russia, his denial of the past and present causes behavior that frustrates his long-estranged family. He intends to go to the island of Cythera, Aphrodite's ancient center of worship, now rather ironically a place for pensioned seniors. But as the old man joins up with his son, daughter, and wife, he refuses to cooperate with them and will often be where they least expect to find him - his behavior is erratic and they are constantly following after him. This makes his journey to Cythera about as certain as his arriving at Kafka's castle. Director Theo Angelopoulos often sets an interior world against the exterior landscape, evoking a symbolism that is not easy to grasp - yet most viewers will be captivated by what they are seeing since it is the art of the film itself that dominates over any political or social statements. \n\nOur rip.\n\nGeneral\nUnique ID                                : 254220622377197322887918827671356467748 (0xBF411C64B58E041E65829A6F2EBC6A24)\nComplete name                            : Taxidi.sta.Kythira.AKA.Voyage.to.Cythera.DVDRip.x264.mkv\nFormat                                   : Matroska\nFormat version                           : Version 2\nFile size                                : 2.64 GiB\nDuration                                 : 2h 13mn\nOverall bit rate                         : 2 828 Kbps\nWriting application                      : HandBrake 0.9.9\nWriting library                          : libmkv 0.6.5\n\nVideo\nID                                       : 1\nFormat                                   : AVC\nFormat/Info                              : Advanced Video Codec\nFormat profile                           : &lt;a class=&quot;__cf_email__&quot; href=&quot;/cdn-cgi/l/email-protection&quot; data-cfemail=&quot;e1a9888689a1add2cfd0&quot;&gt;[email&amp;#160;protected]&lt;/a&gt;&lt;script cf-hash='f9e31' type=&quot;text/javascript&quot;&gt;\n/* &lt;![CDATA[ */!function(){try{var t=&quot;currentScript&quot;in document?document.currentScript:function(){for(var t=document.getElementsByTagName(&quot;script&quot;),e=t.length;e--;)if(t[e].getAttribute(&quot;cf-hash&quot;))return t[e]}();if(t&amp;&amp;t.previousSibling){var e,r,n,i,c=t.previousSibling,a=c.getAttribute(&quot;data-cfemail&quot;);if(a){for(e=&quot;&quot;,r=parseInt(a.substr(0,2),16),n=2;a.length-n;n+=2)i=parseInt(a.substr(n,2),16)^r,e+=String.fromCharCode(i);e=document.createTextNode(e),c.parentNode.replaceChild(e,c)}}}catch(u){}}();/* ]]&gt; */&lt;/script&gt;\nFormat settings, CABAC                   : Yes\nFormat settings, ReFrames                : 11 frames\nCodec ID                                 : V_MPEG4/ISO/AVC\nDuration                                 : 2h 13mn\nBit rate                                 : 2 600 Kbps\nWidth                                    : 714 pixels\nHeight                                   : 564 pixels\nDisplay aspect ratio                     : 4:3\nOriginal display aspect ratio            : 4:3\nFrame rate mode                          : Constant\nFrame rate                               : 25.000 fps\nColor space                              : YUV\nChroma subsampling                       : 4:2:0\nBit depth                                : 8 bits\nScan type                                : Progressive\nBits/(Pixel*Frame)                       : 0.258\nStream size                              : 2.38 GiB (90%)\nWriting library                          : x264 core 130 r2273 b3065e6\nEncoding settings                        : cabac=1 // deblock=1:-2:-2 / analyse=0x3:0x133 / me=umh / subme=11 / psy=1 / psy_rd=1.05:0.00 // me_range=32 / chroma_me=1 / trellis=2 / 8x8dct=1 / cqm=0 / deadzone=21,11 / fast_pskip=0 / chroma_qp_offset=-2 / threads=12 / lookahead_threads=2 / sliced_threads=0 / nr=0 / decimate=1 / interlaced=0 / bluray_compat=0 / constrained_intra=0 / bframes=9 / b_pyramid=2 / b_adapt=2 / b_bias=0 / direct=3 / weightb=1 / open_gop=0 / weightp=2 / keyint=250 / keyint_min=25 / scenecut=40 / intra_refresh=0 / rc_lookahead=60 / rc=abr / mbtree=1 / bitrate=2600 / ratetol=1.0 / qcomp=0.60 / qpmin=0 / qpmax=69 / qpstep=4 / ip_ratio=1.40 / aq=2:1.00\nLanguage                                 : English\nDefault                                  : Yes\nForced                                   : No\nColor primaries                          : BT.601 PAL\nTransfer characteristics                 : BT.709\nMatrix coefficients                      : BT.601\n\nAudio\nID                                       : 2\nFormat                                   : AC-3\nFormat/Info                              : Audio Coding 3\nMode extension                           : CM (complete main)\nFormat settings, Endianness              : Big\nCodec ID                                 : A_AC3\nDuration                                 : 2h 13mn\nBit rate mode                            : Constant\nBit rate                                 : 224 Kbps\nChannel(s)                               : 2 channels\nChannel positions                        : Front: L R\nSampling rate                            : 48.0 KHz\nBit depth                                : 16 bits\nCompression mode                         : Lossy\nStream size                              : 214 MiB (8%)\nLanguage                                 : Greek\nDefault                                  : Yes\nForced                                   : No\n\nText\nID                                       : 3\nFormat                                   : VobSub\nCodec ID                                 : S_VOBSUB\nCodec ID/Info                            : The same subtitle format used on DVDs\nLanguage                                 : English\nDefault                                  : No\nForced                                   : No","torrent":{"xt":"urn:btih:53d4fe6dfb48c2cb5f6748fa88adf94a03770e33","amp;dn":"Taxidi+sta+Kythira+%2F+Voyage+to+Cythera+%28Theo+Angelopoulos%2C+1984%29","amp;tr":["udp%3A%2F%2Ftracker.openbittorrent.com%3A80","udp%3A%2F%2Fopen.demonii.com%3A1337","udp%3A%2F%2Ftracker.coppersurfer.tk%3A6969","udp%3A%2F%2Fexodus.desync.com%3A6969"],"infoHash":"53d4fe6dfb48c2cb5f6748fa88adf94a03770e33","infoHashBuffer":{"type":"Buffer","data":[83,212,254,109,251,72,194,203,95,103,72,250,136,173,249,74,3,119,14,51]},"announce":[],"urlList":[]}}